<?xml version="1.0" encoding="iso-8859-1"?>
<!-- Uploaded to: SVG Repo, www.svgrepo.com, Generator: SVG Repo Mixer Tools -->
<svg version="1.1" id="Layer_1" xmlns="http://www.w3.org/2000/svg" xmlns:xlink="http://www.w3.org/1999/xlink" 
	 viewBox="0 0 512.024 512.024" xml:space="preserve">
<circle style="fill:#E1E5EA;" cx="256.012" cy="256" r="256"/>
<path d="M64.012,353.176V120.672c0-4.128,3.528-7.504,7.832-7.504h368.328c4.304,0,7.832,3.376,7.832,7.504v232.496H64.012V353.176z
	"/>
<path style="fill:#636363;" d="M448.012,353.176v32c0,4.4-3.528,8-7.832,8H71.844c-4.304,0-7.832-3.6-7.832-8v-32H448.012
	L448.012,353.176z"/>
<polygon style="fill:#C9C9C9;" points="200.012,449.176 312.012,449.176 304.012,393.176 208.012,393.176 "/>
<polygon style="fill:#AAAAAA;" points="304.012,393.176 208.012,393.176 203.028,428.08 305.876,406.224 "/>
<rect x="172.012" y="449.2" style="fill:#636363;" width="168" height="8"/>
<polygon style="fill:#939393;" points="208.012,393.176 304.012,393.176 304.556,396.96 205.524,410.624 "/>
<g>
	<rect x="153.052" y="296" style="fill:#E1E5EA;" width="205.976" height="8"/>
	<rect x="110.852" y="320.96" style="fill:#E1E5EA;" width="290.32" height="8"/>
</g>
<path style="fill:#DB2B42;" d="M330.5,272.128H181.524c-4.816,0-8.76-3.944-8.76-8.76v-108.08c0-4.816,3.944-8.76,8.76-8.76H330.5
	c4.816,0,8.76,3.944,8.76,8.76v108.08C339.26,268.192,335.316,272.128,330.5,272.128z"/>
<polygon style="fill:#FFFFFF;" points="231.012,175.904 293.764,212.128 231.012,248.36 "/>
<path d="M488.596,512.024H365.06c-4.08,0-7.416-3.336-7.416-7.416V272.36c0-4.08,3.336-7.416,7.416-7.416h123.536
	c4.08,0,7.416,3.336,7.416,7.416v232.248C496.012,508.688,492.676,512.024,488.596,512.024z"/>
<rect x="365.06" y="284.72" width="123.536" height="197.664"/>
<g>
	<path style="fill:#999999;" d="M441.524,277.304h-29.648c-1.36,0-2.472-1.112-2.472-2.472l0,0c0-1.36,1.112-2.472,2.472-2.472
		h29.648c1.36,0,2.472,1.112,2.472,2.472l0,0C443.996,276.192,442.884,277.304,441.524,277.304z"/>
	<path style="fill:#999999;" d="M441.652,497.2h-29.648c-1.36,0-2.472-1.112-2.472-2.472l0,0c0-1.36,1.112-2.472,2.472-2.472h29.648
		c1.36,0,2.472,1.112,2.472,2.472l0,0C444.124,496.088,443.012,497.2,441.652,497.2z"/>
</g>
<g>
	<rect x="379.852" y="460.72" style="fill:#C9C9C9;" width="93.888" height="4"/>
	<rect x="379.852" y="445.024" style="fill:#C9C9C9;" width="93.888" height="4"/>
	<rect x="379.852" y="429.328" style="fill:#C9C9C9;" width="93.888" height="4"/>
	<rect x="379.852" y="413.632" style="fill:#C9C9C9;" width="93.888" height="4"/>
</g>
<path style="fill:#DB2B42;" d="M469.508,383.224h-85.336c-2.76,0-5.016-2.256-5.016-5.016v-61.912c0-2.76,2.256-5.016,5.016-5.016
	h85.336c2.76,0,5.016,2.256,5.016,5.016v61.912C474.524,380.968,472.268,383.224,469.508,383.224z"/>
<polygon style="fill:#FFFFFF;" points="412.516,328.104 448.46,348.856 412.516,369.608 "/>
</svg>