<?xml version="1.0" encoding="iso-8859-1"?>
<!-- Uploaded to: SVG Repo, www.svgrepo.com, Generator: SVG Repo Mixer Tools -->
<svg version="1.1" id="Layer_1" xmlns="http://www.w3.org/2000/svg" xmlns:xlink="http://www.w3.org/1999/xlink" 
	 viewBox="0 0 512 512" xml:space="preserve">
<path style="fill:#F2F2F2;" d="M256,0C114.616,0,0,114.616,0,256s114.616,256,256,256s256-114.616,256-256S397.384,0,256,0z"/>
<rect x="126.872" y="84.088" style="fill:#FFFFFF;" width="258" height="344"/>
<rect x="126.872" y="84.088" width="258" height="41.4"/>
<rect x="153.752" y="317.64" style="fill:#FFFFFF;" width="204.248" height="85.752"/>
<rect x="166.424" y="331.848" width="178.904" height="7.168"/>
<g>
	<rect x="166.424" y="353.36" style="fill:#D8D8D8;" width="178.904" height="7.168"/>
	<rect x="166.424" y="367.68" style="fill:#D8D8D8;" width="178.904" height="7.168"/>
	<rect x="166.424" y="382.016" style="fill:#D8D8D8;" width="178.904" height="7.168"/>
</g>
<path style="fill:#E21B1B;" d="M347.248,302.616H164.504c-5.912,0-10.752-4.84-10.752-10.752V159.28
	c0-5.912,4.84-10.752,10.752-10.752h182.752c5.912,0,10.752,4.84,10.752,10.752v132.584C358,297.776,353.16,302.616,347.248,302.616
	z"/>
<g>
	<polygon style="fill:#FFFFFF;" points="225.208,184.568 302.184,229.008 225.208,273.448 	"/>
	<rect x="230.792" y="94.536" style="fill:#FFFFFF;" width="127.128" height="21.504"/>
</g>
<g>
	<rect x="333.88" y="94.536" style="fill:#E21B1B;" width="24" height="21.504"/>
	<path style="fill:#E21B1B;" d="M211.776,116.04h-31.48c-1.2,0-2.176-0.984-2.176-2.176V96.72c0-1.2,0.984-2.176,2.176-2.176h31.48
		c1.2,0,2.176,0.984,2.176,2.176v17.144C213.96,115.056,212.976,116.04,211.776,116.04z"/>
</g>
<g>
	<path style="fill:#FFFFFF;" d="M184.696,102.896h-2.544v-1.36h6.744v1.36h-2.568v7.568h-1.632V102.896z"/>
	<path style="fill:#FFFFFF;" d="M194.992,108.52c0,0.768,0.024,1.408,0.048,1.936h-1.432l-0.08-0.984h-0.024
		c-0.28,0.464-0.912,1.128-2.064,1.128c-1.176,0-2.248-0.704-2.248-2.808V104h1.624v3.512c0,1.072,0.344,1.768,1.208,1.768
		c0.648,0,1.072-0.464,1.24-0.88c0.056-0.144,0.088-0.312,0.088-0.504V104h1.632v4.52H194.992z"/>
	<path style="fill:#FFFFFF;" d="M196.704,110.456c0.024-0.44,0.056-1.152,0.056-1.816v-7.592h1.624v3.84h0.024
		c0.392-0.616,1.096-1.032,2.064-1.032c1.576,0,2.704,1.312,2.688,3.272c0,2.32-1.472,3.472-2.928,3.472
		c-0.832,0-1.576-0.32-2.04-1.112h-0.024l-0.08,0.968H196.704z M198.384,107.792c0,0.136,0.008,0.264,0.04,0.384
		c0.168,0.648,0.736,1.144,1.44,1.144c1.016,0,1.64-0.824,1.64-2.12c0-1.144-0.544-2.072-1.632-2.072
		c-0.656,0-1.256,0.48-1.44,1.192c-0.024,0.12-0.048,0.264-0.048,0.424L198.384,107.792L198.384,107.792z"/>
	<path style="fill:#FFFFFF;" d="M205.656,107.688c0.04,1.168,0.952,1.672,1.984,1.672c0.752,0,1.296-0.112,1.784-0.296l0.24,1.128
		c-0.56,0.224-1.328,0.4-2.256,0.4c-2.088,0-3.32-1.288-3.32-3.264c0-1.784,1.088-3.472,3.152-3.472
		c2.096,0,2.784,1.728,2.784,3.144c0,0.304-0.024,0.544-0.048,0.688H205.656z M208.496,106.552c0.008-0.592-0.248-1.576-1.336-1.576
		c-1.008,0-1.432,0.92-1.496,1.576H208.496z"/>
	<path style="fill:#FFFFFF;" d="M156.792,110.456v-3.72l-2.824-5.208h1.856l1.072,2.288c0.304,0.664,0.528,1.168,0.768,1.776h0.024
		c0.224-0.568,0.472-1.128,0.784-1.776l1.072-2.288h1.84l-2.968,5.168v3.76H156.792z"/>
	<path style="fill:#FFFFFF;" d="M167.208,107.176c0,2.376-1.664,3.432-3.312,3.432c-1.824,0-3.232-1.256-3.232-3.32
		c0-2.128,1.392-3.424,3.336-3.424C165.928,103.864,167.208,105.216,167.208,107.176z M162.352,107.248
		c0,1.24,0.608,2.184,1.6,2.184c0.928,0,1.576-0.912,1.576-2.216c0-1.008-0.448-2.16-1.56-2.16
		C162.816,105.056,162.352,106.168,162.352,107.248z"/>
	<path style="fill:#FFFFFF;" d="M174.328,108.52c0,0.768,0.024,1.408,0.048,1.936h-1.432l-0.08-0.984h-0.024
		c-0.28,0.464-0.912,1.128-2.064,1.128c-1.176,0-2.248-0.704-2.248-2.808V104h1.624v3.512c0,1.072,0.344,1.768,1.208,1.768
		c0.648,0,1.072-0.464,1.24-0.88c0.056-0.144,0.088-0.312,0.088-0.504V104h1.632v4.52H174.328z"/>
	<path style="fill:#FFFFFF;" d="M345.408,108.848c-2.832,0-5.136-2.304-5.136-5.136s2.304-5.136,5.136-5.136
		s5.136,2.304,5.136,5.136S348.24,108.848,345.408,108.848z M345.408,99.744c-2.184,0-3.968,1.784-3.968,3.968
		s1.784,3.968,3.968,3.968s3.968-1.784,3.968-3.968S347.6,99.744,345.408,99.744z"/>
	
		<rect x="347.332" y="108.917" transform="matrix(-0.6044 -0.7967 0.7967 -0.6044 474.3606 454.5285)" style="fill:#FFFFFF;" width="5.384" height="1.16"/>
</g>
<path d="M241.416,108.288c0.44,0.272,1.08,0.496,1.752,0.496c1,0,1.584-0.528,1.584-1.296c0-0.704-0.4-1.112-1.424-1.504
	c-1.232-0.44-2-1.08-2-2.152c0-1.184,0.976-2.056,2.448-2.056c0.776,0,1.336,0.176,1.672,0.368l-0.272,0.8
	c-0.248-0.136-0.752-0.36-1.44-0.36c-1.032,0-1.424,0.616-1.424,1.136c0,0.712,0.456,1.056,1.504,1.464
	c1.28,0.496,1.936,1.112,1.936,2.224c0,1.168-0.864,2.184-2.656,2.184c-0.728,0-1.528-0.216-1.936-0.48L241.416,108.288z"/>
<path d="M247.704,106.944c0.024,1.344,0.88,1.888,1.864,1.888c0.704,0,1.136-0.12,1.504-0.28l0.168,0.712
	c-0.344,0.16-0.944,0.336-1.808,0.336c-1.672,0-2.672-1.104-2.672-2.744c0-1.64,0.968-2.936,2.552-2.936
	c1.776,0,2.248,1.56,2.248,2.568c0,0.2-0.024,0.36-0.032,0.456H247.704z M250.608,106.24c0.008-0.632-0.256-1.608-1.368-1.608
	c-1,0-1.44,0.92-1.52,1.608H250.608z"/>
<path d="M255.832,109.48l-0.08-0.688h-0.032c-0.304,0.432-0.888,0.808-1.664,0.808c-1.104,0-1.664-0.776-1.664-1.56
	c0-1.32,1.168-2.04,3.272-2.024v-0.112c0-0.448-0.12-1.264-1.24-1.264c-0.504,0-1.032,0.16-1.416,0.408l-0.224-0.656
	c0.448-0.288,1.104-0.48,1.784-0.48c1.664,0,2.064,1.136,2.064,2.224v2.04c0,0.472,0.024,0.936,0.096,1.304
	C256.728,109.48,255.832,109.48,255.832,109.48z M255.688,106.712c-1.08-0.024-2.304,0.168-2.304,1.224
	c0,0.64,0.424,0.944,0.928,0.944c0.712,0,1.16-0.448,1.312-0.912c0.032-0.104,0.056-0.216,0.056-0.312v-0.944H255.688z"/>
<path d="M258.272,105.744c0-0.64-0.016-1.192-0.048-1.704h0.864l0.04,1.072h0.04c0.248-0.728,0.848-1.192,1.512-1.192
	c0.112,0,0.184,0.008,0.28,0.032v0.936c-0.104-0.024-0.208-0.032-0.336-0.032c-0.704,0-1.2,0.528-1.328,1.272
	c-0.024,0.128-0.048,0.288-0.048,0.456v2.904h-0.976V105.744z"/>
<path d="M265.736,109.28c-0.264,0.136-0.832,0.312-1.568,0.312c-1.64,0-2.712-1.112-2.712-2.776c0-1.68,1.152-2.896,2.928-2.896
	c0.584,0,1.104,0.152,1.376,0.28l-0.224,0.768c-0.24-0.136-0.608-0.256-1.152-0.256c-1.248,0-1.92,0.92-1.92,2.056
	c0,1.264,0.808,2.04,1.888,2.04c0.56,0,0.936-0.152,1.216-0.272L265.736,109.28z"/>
<path d="M266.92,101.504h0.984v3.392h0.024c0.16-0.28,0.408-0.528,0.712-0.696c0.288-0.168,0.64-0.28,1.008-0.28
	c0.736,0,1.904,0.448,1.904,2.328v3.24h-0.992v-3.128c0-0.88-0.32-1.616-1.256-1.616c-0.64,0-1.152,0.448-1.328,0.984
	c-0.056,0.136-0.072,0.28-0.072,0.472v3.288h-0.984L266.92,101.504L266.92,101.504z"/>
<g style="opacity:0.2;">
	<path style="fill:#FFFFFF;" d="M164.496,148.536c-5.912,0-10.752,4.84-10.752,10.752v71.224l97.392-81.976H164.496z"/>
</g>
</svg>